<svg xmlns="http://www.w3.org/2000/svg" viewBox="0 0 96 96">
  <rect width="96" height="96" fill="none"/>
  <path d="M22 67h41l-5-30-30 0z" fill="#4c1f2d" stroke="#1a1008" stroke-width="4"/>
  <ellipse cx="43" cy="33" rx="16" ry="13" fill="#7ea84c" stroke="#1a1008" stroke-width="4"/>
  <path d="M27 33l-12-6 9-9 12 7zM56 33l12-6-9-9-12 7" fill="#7ea84c" stroke="#1a1008" stroke-width="3"/>
  <circle cx="38" cy="32" r="3" fill="#90ff89"/><circle cx="48" cy="32" r="3" fill="#90ff89"/>
  <path d="M35 40c5 4 10 4 15 0" stroke="#2f160d" stroke-width="4" fill="none"/>
  <path d="M75 22c-15 13-15 40 0 52" stroke="#9ce58f" stroke-width="6" fill="none" stroke-linecap="round"/>
  <path d="M75 24c-11 9-11 34 0 48" stroke="#4f8f4b" stroke-width="2" fill="none"/>
  <path d="M67 48h16" stroke="#d8ffd2" stroke-width="3" stroke-linecap="round"/>
  <circle cx="72" cy="58" r="5" fill="#62d15f" fill-opacity=".55"/>
  <circle cx="17" cy="61" r="4" fill="#62d15f" fill-opacity=".4"/>
</svg>
