<svg xmlns="http://www.w3.org/2000/svg" viewBox="0 0 96 96">
  <rect width="96" height="96" fill="none"/>
  <path d="M24 67h39l-4-28-30 0z" fill="#3a3347" stroke="#1a1008" stroke-width="4"/>
  <ellipse cx="45" cy="33" rx="17" ry="14" fill="#6e8f43" stroke="#1a1008" stroke-width="4"/>
  <path d="M30 33l-11-6 10-10 12 8zM60 33l11-6-10-10-12 8" fill="#6e8f43" stroke="#1a1008" stroke-width="3"/>
  <circle cx="40" cy="32" r="3" fill="#ffe779"/><circle cx="50" cy="32" r="3" fill="#ffe779"/>
  <path d="M37 40c5 4 11 4 16 0" stroke="#2f160d" stroke-width="4" fill="none"/>
  <path d="M76 23c-14 12-14 38 0 50" stroke="#d7c39b" stroke-width="6" fill="none" stroke-linecap="round"/>
  <path d="M76 24c-11 9-11 34 0 48" stroke="#8f7b58" stroke-width="2" fill="none"/>
  <path d="M68 47h16" stroke="#f2ead5" stroke-width="3" stroke-linecap="round"/>
</svg>
