<svg xmlns="http://www.w3.org/2000/svg" viewBox="0 0 96 96">
  <defs>
    <linearGradient id="armor" x1="0" y1="0" x2="0" y2="1">
      <stop offset="0" stop-color="#9fc7dc"/>
      <stop offset="1" stop-color="#375365"/>
    </linearGradient>
    <linearGradient id="shield" x1="0" y1="0" x2="0" y2="1">
      <stop offset="0" stop-color="#e9fbff"/>
      <stop offset="1" stop-color="#8fbdd0"/>
    </linearGradient>
  </defs>
  <ellipse cx="51" cy="82" rx="29" ry="8" fill="#120b08" opacity=".35"/>
  <path d="M25 36c4-18 18-27 30-21 13 7 18 20 16 39l-5 25H31z" fill="url(#armor)" stroke="#1e1008" stroke-width="4" stroke-linejoin="round"/>
  <path d="M38 15l9-8 10 8 7 19H31z" fill="#d7f1ff" stroke="#1e1008" stroke-width="4" stroke-linejoin="round"/>
  <path d="M20 30l28-10 28 10-6 43-22 14-22-14z" fill="url(#shield)" stroke="#1e1008" stroke-width="5" stroke-linejoin="round"/>
  <path d="M48 25v53M31 37h34" stroke="#2f4f74" stroke-width="5" stroke-linecap="round"/>
  <path d="M23 49H8M73 49h15" stroke="#d7f1ff" stroke-width="6" stroke-linecap="round"/>
  <path d="M38 24c3 4 17 4 20 0" stroke="#1e1008" stroke-width="3" stroke-linecap="round" opacity=".55"/>
</svg>
