<svg xmlns="http://www.w3.org/2000/svg" viewBox="0 0 96 96">
  <defs>
    <linearGradient id="robe" x1="0" y1="0" x2="0" y2="1">
      <stop offset="0" stop-color="#a15ec7"/>
      <stop offset="1" stop-color="#5e2a79"/>
    </linearGradient>
  </defs>
  <ellipse cx="49" cy="82" rx="26" ry="7" fill="#120b08" opacity=".35"/>
  <path d="M27 34c4-18 22-28 37-15 12 11 12 32 0 58l-15 11-16-11c-9-18-11-32-6-43z" fill="url(#robe)" stroke="#1e1008" stroke-width="4" stroke-linejoin="round"/>
  <path d="M33 20l15-11 16 11-5 28H38z" fill="#f0d8ff" stroke="#1e1008" stroke-width="4" stroke-linejoin="round"/>
  <circle cx="48" cy="43" r="13" fill="#b37cff" stroke="#1e1008" stroke-width="4"/>
  <path d="M48 27v32M34 43h28M38 32l20 22M58 32L38 54" stroke="#f0d8ff" stroke-width="4" stroke-linecap="round"/>
  <path d="M20 59c9-8 18-10 28-4 11 6 21 4 31-6" fill="none" stroke="#d8a7ff" stroke-width="5" stroke-linecap="round" opacity=".8"/>
  <circle cx="48" cy="43" r="24" fill="none" stroke="#d8a7ff" stroke-width="3" opacity=".55"/>
</svg>
