<svg xmlns="http://www.w3.org/2000/svg" viewBox="0 0 96 96">
  <defs>
    <linearGradient id="hide" x1="0" y1="0" x2="0" y2="1">
      <stop offset="0" stop-color="#c47c36"/>
      <stop offset="1" stop-color="#5d3817"/>
    </linearGradient>
  </defs>
  <ellipse cx="48" cy="82" rx="25" ry="7" fill="#120b08" opacity=".35"/>
  <path d="M28 31c4-15 18-23 32-13 11 8 13 26 4 48l-7 16H35l-7-16c-5-12-5-24 0-35z" fill="url(#hide)" stroke="#1e1008" stroke-width="4" stroke-linejoin="round"/>
  <path d="M30 22l-13-9 4 19M63 22l14-9-4 20" fill="#d59a58" stroke="#1e1008" stroke-width="4" stroke-linejoin="round"/>
  <circle cx="48" cy="44" r="16" fill="#2b1a10" stroke="#f5c57a" stroke-width="5"/>
  <path d="M41 44h14M48 37v14" stroke="#f5c57a" stroke-width="4" stroke-linecap="round"/>
  <path d="M62 58l20 9-17 8" fill="#d59a58" stroke="#1e1008" stroke-width="4" stroke-linejoin="round"/>
  <path d="M28 62l-14 8M65 31l14-5" stroke="#1e1008" stroke-width="5" stroke-linecap="round"/>
</svg>
